<svg width="428" height="316" viewBox="0 0 428 316" fill="none" xmlns="http://www.w3.org/2000/svg">
<g clip-path="url(#clip0_2_2)">
<path d="M387.555 314.536H296.804V311.761C296.804 309.351 297.764 307.04 299.474 305.335C301.184 303.631 303.503 302.674 305.921 302.674H378.438C380.856 302.674 383.175 303.631 384.884 305.335C386.594 307.04 387.555 309.351 387.555 311.761V314.536Z" fill="#E6E6E6"/>
<path d="M340.056 303.228L342.815 302.12C313.939 230.682 316.721 140.556 341.131 63.2448C344.03 54.2872 344.239 44.6801 341.732 35.6055C339.225 26.531 334.111 18.3848 327.02 12.1692C312.852 -0.4324 293.319 -3.50225 276.041 4.1568C258.986 11.7181 256.636 24.8888 256.636 37.9953H259.611C259.611 24.0047 262.611 13.3569 277.25 6.86645C293.444 -0.311487 311.755 2.56758 325.039 14.3821C331.699 20.2199 336.503 27.8711 338.858 36.3943C341.212 44.9175 341.016 53.9409 338.293 62.3543C313.601 140.559 310.982 231.303 340.056 303.228Z" fill="#E6E6E6"/>
<path d="M258.867 81.7378C264.619 81.7378 269.281 77.0907 269.281 71.3582C269.281 65.6257 264.619 60.9787 258.867 60.9787C253.116 60.9787 248.453 65.6257 248.453 71.3582C248.453 77.0907 253.116 81.7378 258.867 81.7378Z" fill="#E6E6E6"/>
<path d="M242.829 89.4527V69.786H245.897V89.4527C246.777 89.8076 247.506 90.4564 247.959 91.2881C248.411 92.1199 248.56 93.0826 248.378 94.0114C248.197 94.9402 247.697 95.7773 246.965 96.3791C246.232 96.9809 245.312 97.31 244.363 97.31C243.413 97.31 242.494 96.9809 241.761 96.3791C241.028 95.7773 240.528 94.9402 240.347 94.0114C240.166 93.0826 240.314 92.1199 240.767 91.2881C241.22 90.4564 241.949 89.8076 242.829 89.4527Z" fill="#E6E6E6"/>
<path d="M227.997 54.6766C228.002 50.1557 229.806 45.8214 233.014 42.6246C236.221 39.4279 240.57 37.6297 245.106 37.6245H273.372C277.91 37.6245 282.262 39.4211 285.47 42.619C288.679 45.8169 290.481 50.1541 290.481 54.6766C290.481 59.1992 288.679 63.5364 285.47 66.7343C282.262 69.9322 277.91 71.7288 273.372 71.7288H245.106C240.57 71.7236 236.221 69.9254 233.014 66.7287C229.806 63.5319 228.002 59.1976 227.997 54.6766Z" fill="#8866FF"/>
<path d="M188.171 160.274C191.009 124.085 205.519 106.842 196.228 96.0293C187.328 85.6717 162.258 87.8113 146.158 97.7501C102.731 124.557 86.8216 231.401 142.704 283.602C195.807 333.206 296.448 317.319 318.814 276.718C324.032 267.245 328.178 250.638 320.54 240.581C301.578 215.611 232.636 260.838 201.983 232.55C183.817 215.785 186.613 180.135 188.171 160.274Z" fill="#3F3D56"/>
<path d="M221.366 142.295C220.311 142.779 219.488 143.653 219.07 144.733C218.652 145.813 218.674 147.012 219.13 148.076C219.226 148.291 219.34 148.498 219.471 148.694L210.15 161.098L214.801 168.027L225.726 149.658C226.5 149.057 227.053 148.217 227.297 147.269C227.542 146.322 227.465 145.32 227.078 144.421C226.854 143.911 226.53 143.451 226.127 143.066C225.723 142.681 225.248 142.379 224.727 142.177C224.207 141.975 223.651 141.877 223.093 141.889C222.534 141.901 221.984 142.023 221.472 142.247C221.437 142.262 221.401 142.279 221.366 142.295Z" fill="#FFB6B6"/>
<path d="M221.359 163.682C221.969 164.221 220.277 164.887 218.487 163.837C217.975 163.533 217.756 163.407 217.698 163.487C217.554 163.688 218.395 165.168 218.17 168.455C218.032 170.416 214.763 174.105 211.051 177.701C206.033 182.566 200.197 187.258 200.197 187.258L198.148 185.623L176.664 168.455L173.038 163.453C173.37 161.477 173.869 159.534 174.529 157.642C175.438 155.024 176.518 152.467 177.763 149.99C178.431 148.642 179.115 147.357 179.772 146.175L191.282 158.818L200.928 169.407C200.928 169.407 203.736 164.898 205.912 163.671C206.189 163.494 206.505 163.386 206.833 163.355C209.031 163.252 209.163 162.059 206.614 159.46C204.064 156.862 207.281 159.288 209.549 158.588C211.816 157.889 209.549 158.588 210.027 156.839C210.504 155.089 216.864 151.579 216.864 151.579L217.129 151.814L221.934 156.042L223.31 157.252C223.31 157.252 221.808 161.359 221.393 162.225C220.979 163.091 220.754 163.137 221.359 163.682Z" fill="#8866FF"/>
<path d="M348.04 243.366L348.275 237.039L323.901 233.128L323.555 242.466L348.04 243.366Z" fill="#FFB6B6"/>
<path d="M343.616 245.271L343.385 235.141L347.73 235.301L354.745 225.935C355.091 225.473 355.577 225.133 356.131 224.965C356.685 224.797 357.279 224.809 357.825 225.001C358.371 225.193 358.841 225.554 359.167 226.032C359.493 226.509 359.657 227.078 359.636 227.654L359.19 239.689L354.815 241.605L359.083 242.573L358.915 247.11L343.616 245.271Z" fill="#2F2E41"/>
<path d="M210.86 245.83L288.062 247.781C288.062 247.781 321.4 249.7 329.222 244.628L337.471 243.59L337.918 231.514C337.918 231.514 332.874 231.551 329.974 230.205C327.074 228.858 329.089 227.21 326.325 228.83C323.56 230.451 323.852 230.646 321.714 229.901C319.576 229.156 221.545 214.263 221.545 214.263L210.86 245.83Z" fill="#2F2E41"/>
<path d="M312.592 240.589L317.081 236.11L301.882 216.719L295.256 223.331L312.592 240.589Z" fill="#FFB6B6"/>
<path d="M308.048 236.692L314.792 229.109L317.868 232.172L329.401 230.061C329.971 229.957 330.559 230.037 331.08 230.289C331.601 230.542 332.027 230.954 332.297 231.465C332.566 231.975 332.664 232.559 332.578 233.13C332.491 233.7 332.223 234.228 331.814 234.637L323.275 243.157L318.76 241.596L321.229 245.199L318.009 248.412L308.048 236.692Z" fill="#2F2E41"/>
<path d="M180.401 203.689L181.169 221.471C182.072 242.404 205.202 255.073 223.138 244.144C223.468 243.942 223.8 243.734 224.133 243.518C224.133 243.518 230.932 241.698 230.726 238.816C230.519 235.934 232.18 234.531 233.65 235.317C235.12 236.103 254.367 208.879 254.367 208.879C254.367 208.879 294.355 228.759 303.176 233.44C303.176 233.44 311.471 220.514 310.869 220.65C310.268 220.785 261.399 186.695 261.399 186.695C261.399 186.695 253.438 178.664 243.562 183.966C243.357 184.745 243.532 184.772 243.532 184.772L210.909 211.267L206.3 202.542L180.401 203.689Z" fill="#2F2E41"/>
<path d="M211.16 181.459C211.098 182.28 210.981 183.096 210.809 183.902C210.574 185.069 210.196 186.201 209.681 187.275C209.681 187.275 209.681 188.474 207.379 192.489C205.077 196.505 207.955 194.784 209.681 197.767C211.408 200.744 209.681 199.373 207.765 201.288C207.213 201.846 206.821 202.541 206.63 203.3C206.439 204.06 206.455 204.857 206.677 205.608C206.677 205.608 181.953 205.625 177.349 203.904C172.744 202.183 171.697 192.489 175.823 191.531C179.944 190.573 174.575 189.621 172.152 187.413C169.729 185.204 174.575 181.59 174.575 181.59C174.575 181.59 172.577 178.155 172.744 166.619C172.768 165.558 172.866 164.5 173.038 163.453C173.37 161.477 173.869 159.534 174.528 157.642C175.438 155.024 176.518 152.467 177.763 149.99C178.43 148.642 179.115 147.357 179.771 146.175C179.875 145.992 179.973 145.814 180.077 145.636C181.325 143.434 182.465 141.632 183.219 140.479C183.8 139.585 184.151 139.08 184.151 139.08L188.341 131.818L202.326 138.351L201.532 149.038L203.943 157.097L205.054 160.808L205.912 163.671L207.235 168.105C207.235 168.105 206.873 168.122 207.304 168.713C209.292 171.347 210.581 174.439 211.051 177.701C211.217 178.947 211.253 180.206 211.16 181.459Z" fill="#8866FF"/>
<path d="M251.548 182.61L251.285 182.526L217.812 171.782L230.147 131.451C230.393 130.647 230.818 129.91 231.391 129.295C231.964 128.679 232.67 128.201 233.455 127.897C234.24 127.593 235.084 127.471 235.924 127.539C236.764 127.607 237.577 127.865 238.302 128.292L259.692 140.888C261.386 141.884 262.674 143.441 263.332 145.288C263.99 147.134 263.976 149.153 263.293 150.99L251.548 182.61Z" fill="#2F2E41"/>
<path d="M251.684 185.174L217.942 174.345L230.276 134.013C230.522 133.209 230.947 132.472 231.52 131.857C232.093 131.241 232.799 130.764 233.584 130.459C234.369 130.155 235.213 130.033 236.053 130.101C236.893 130.169 237.706 130.427 238.431 130.854L260.843 142.006C264.21 143.989 264.131 149.119 262.568 153.328L251.684 185.174Z" fill="#8866FF"/>
<path d="M248.306 188.093C247.529 188.53 246.669 188.801 245.781 188.889C244.893 188.977 243.997 188.88 243.149 188.605L221.582 181.682C219.927 181.143 218.549 179.981 217.743 178.443C216.936 176.906 216.765 175.115 217.265 173.453L228.078 138.097C228.294 137.391 228.65 136.735 229.124 136.167C229.597 135.599 230.18 135.132 230.838 134.791C231.495 134.451 232.215 134.245 232.953 134.186C233.692 134.126 234.435 134.214 235.138 134.445L257.489 141.759C258.554 142.107 259.538 142.665 260.383 143.399C261.228 144.133 261.917 145.028 262.409 146.032C262.901 147.035 263.186 148.127 263.248 149.243C263.31 150.358 263.147 151.475 262.768 152.526L251.207 184.651C250.688 186.109 249.658 187.332 248.306 188.093Z" fill="#3F3D56"/>
<path d="M201.536 131.942C210.067 131.942 216.983 125.049 216.983 116.545C216.983 108.042 210.067 101.149 201.536 101.149C193.004 101.149 186.088 108.042 186.088 116.545C186.088 125.049 193.004 131.942 201.536 131.942Z" fill="#FFB6B6"/>
<path d="M149.299 132.174C150.717 134.912 153.041 137.078 155.878 138.304C157.01 138.818 158.201 139.193 159.424 139.422C159.769 138.056 160.322 136.75 161.064 135.551C160.817 136.903 160.817 138.288 161.064 139.64C162.927 139.792 164.801 139.56 166.57 138.959C168.308 138.37 169.883 137.385 171.173 136.084C172.462 134.782 173.429 133.199 173.997 131.46C175.228 127.379 173.902 123.02 173.798 118.76C173.69 114.499 175.72 109.404 179.963 108.877C183.195 108.475 182.795 108.787 185.117 111.062C181.869 114.658 189.787 130.586 194.036 129.882C196.438 129.484 198.206 127.583 198.681 127.649C201.114 133.587 193.796 142.009 199.6 144.774L199.169 144.206C196.131 139.204 205.121 130.755 202.083 125.752C201.236 124.353 200.355 122.712 200.879 121.164C201.377 119.692 203.895 119.226 204.427 120.566C203.563 117.495 205.975 113.891 209.178 113.578C212.023 113.298 211.859 114.107 214.572 114.844C214.919 113.679 215.418 112.565 216.058 111.531C215.842 112.711 215.815 113.918 215.979 115.106C216.957 115.223 217.947 115.014 218.795 114.512C221.3 113.015 221.375 109.151 219.654 106.799C217.929 104.447 215.041 103.286 212.255 102.407C212.229 96.5335 196.373 93.7219 193.457 99.1823C193.157 94.7611 188.072 91.7828 183.692 92.5338C179.311 93.2849 175.856 96.7856 173.749 100.688C171.642 104.587 170.596 108.952 169.054 113.105C167.512 117.258 165.308 121.399 161.615 123.863C157.923 126.324 152.436 126.548 149.353 123.358C148.65 124.72 148.279 126.228 148.269 127.759C148.26 129.291 148.613 130.803 149.299 132.174Z" fill="#2F2E41"/>
<path d="M165.15 202.58C165.469 202.326 165.816 202.107 166.184 201.928C172.096 198.995 190.483 191.382 204.861 191.694C232.524 192.295 267.728 222.724 259.535 243.157C253.301 258.706 222.306 267.552 199.681 260.477C167.985 250.565 155.474 210.269 165.15 202.58Z" fill="#3F3D56"/>
<path d="M50.3092 314.595C41.2701 312.895 33.2688 272.307 51.0531 252.318C57.1462 245.469 64.7466 242.488 74.8565 239.714C133.046 223.747 177.428 238.964 183.392 242.679C189.343 246.386 199.776 302.24 186.435 310.146C178.929 314.595 164.052 316.819 156.681 311.629C145.835 303.993 164.04 284.185 155.937 270.852C146.742 255.723 98.3212 250.626 74.0453 265.663C48.1454 281.705 101.568 324.233 50.3092 314.595Z" fill="#F2F2F2"/>
<path d="M110.744 245.586H76.211C67.6862 237.444 61.5911 229.596 66.4709 223.082C66.4709 221.21 67.2172 219.414 68.5457 218.09C69.8741 216.766 71.6759 216.022 73.5546 216.022H113.4C115.279 216.022 117.081 216.766 118.409 218.09C119.737 219.414 120.484 221.21 120.484 223.082C122.342 230.504 119.022 238.007 110.744 245.586Z" fill="#CCCCCC"/>
<path d="M104.542 207.134C104.214 207.149 103.89 207.063 103.613 206.888C103.336 206.713 103.119 206.458 102.993 206.156C102.866 205.854 102.836 205.521 102.905 205.202C102.975 204.883 103.142 204.592 103.383 204.37L103.492 203.936C103.478 203.901 103.463 203.866 103.449 203.832C103.119 203.055 102.565 202.392 101.859 201.927C101.152 201.463 100.323 201.216 99.4767 201.219C98.6301 201.222 97.8032 201.475 97.1001 201.945C96.3969 202.415 95.8487 203.082 95.5245 203.861C94.2284 206.972 92.5783 210.089 92.172 213.378C91.9931 214.832 92.0686 216.306 92.3951 217.734C89.3511 211.116 87.7704 203.923 87.7603 196.643C87.7596 194.816 87.8615 192.99 88.0653 191.174C88.2338 189.686 88.4675 188.208 88.7665 186.741C90.398 178.78 93.901 171.318 98.9877 164.968C101.45 163.629 103.441 161.571 104.693 159.069C105.146 158.17 105.467 157.21 105.644 156.219C105.366 156.256 104.597 152.04 104.806 151.781C104.419 151.196 103.727 150.905 103.304 150.334C101.202 147.493 98.3053 147.989 96.7933 151.849C93.5632 153.474 93.5319 156.169 95.5139 158.761C96.7748 160.409 96.9481 162.64 98.0544 164.406C97.9406 164.551 97.8222 164.691 97.7084 164.837C95.6277 167.503 93.8142 170.367 92.2939 173.386C92.6636 170.004 92.2224 166.582 91.0065 163.403C89.7742 160.44 87.4644 157.944 85.4304 155.383C82.9871 152.306 77.9771 153.649 77.5466 157.549C77.5425 157.587 77.5384 157.625 77.5344 157.662C77.8366 157.832 78.1323 158.013 78.4217 158.203C78.7852 158.445 79.0669 158.791 79.2298 159.196C79.3927 159.6 79.4293 160.044 79.3348 160.469C79.2402 160.895 79.0189 161.282 78.6998 161.58C78.3808 161.878 77.9789 162.073 77.5468 162.139L77.5026 162.146C77.6102 163.231 77.8005 164.307 78.0717 165.363C75.4623 175.421 81.0958 179.084 89.1398 179.249C89.3174 179.34 89.4904 179.43 89.668 179.517C88.1406 183.831 87.1825 188.325 86.8179 192.885C86.6114 195.576 86.6236 198.278 86.8543 200.967L86.8406 200.872C86.2578 197.882 84.6577 195.185 82.3104 193.235C78.8242 190.38 73.8989 189.329 70.1379 187.035C69.7382 186.779 69.2734 186.643 68.7984 186.641C68.3234 186.64 67.858 186.775 67.4571 187.028C67.0561 187.282 66.7364 187.645 66.5355 188.074C66.3346 188.503 66.2611 188.98 66.3235 189.45C66.3285 189.483 66.3336 189.516 66.3388 189.55C66.8995 189.777 67.4454 190.04 67.9733 190.335C68.2754 190.505 68.5712 190.685 68.8605 190.876C69.2241 191.118 69.5057 191.464 69.6687 191.868C69.8316 192.272 69.8682 192.716 69.7736 193.142C69.679 193.567 69.4577 193.954 69.1387 194.252C68.8197 194.55 68.4178 194.745 67.9857 194.811L67.9414 194.818C67.9096 194.823 67.8822 194.827 67.8504 194.832C68.8084 197.112 70.1529 199.21 71.8251 201.035C73.4567 209.815 80.4645 210.648 87.9606 208.091H87.9652C88.7876 211.654 89.9793 215.121 91.521 218.438H104.224C104.269 218.297 104.31 218.152 104.351 218.011C103.175 218.085 101.995 218.015 100.836 217.802C101.779 216.65 102.721 215.488 103.664 214.336C103.685 214.314 103.704 214.291 103.723 214.267C104.201 213.678 104.683 213.092 105.162 212.502L105.162 212.502C105.187 210.693 104.979 208.889 104.542 207.134Z" fill="#CCCCCC"/>
<path d="M147.868 243.742C148.079 244.354 148.478 244.883 149.01 245.254C149.541 245.625 150.176 245.818 150.825 245.807L163.493 245.482C164.146 245.469 164.778 245.246 165.294 244.846C165.809 244.446 166.181 243.89 166.353 243.262L168.146 224.156C168.782 224.443 169.474 224.585 170.173 224.571C171.397 224.54 172.56 224.026 173.404 223.141C174.249 222.256 174.706 221.073 174.675 219.852C174.644 218.631 174.128 217.472 173.24 216.631C172.353 215.789 171.166 215.333 169.941 215.364C169.662 215.363 169.383 215.392 169.11 215.45C168.814 215.13 168.453 214.876 168.052 214.703C167.65 214.53 167.217 214.443 166.78 214.448L147.293 214.949C147.131 214.955 146.97 214.975 146.812 215.009C146.385 215.088 145.979 215.258 145.623 215.507C145.267 215.755 144.969 216.077 144.748 216.45C144.527 216.823 144.389 217.239 144.343 217.67C144.297 218.101 144.345 218.537 144.482 218.948L147.868 243.742ZM168.514 222.858L169.789 218.305C169.934 217.779 169.938 217.225 169.799 216.697C169.861 216.697 169.916 216.668 169.977 216.667C170.852 216.65 171.698 216.978 172.33 217.581C172.962 218.184 173.328 219.012 173.349 219.883C173.369 220.755 173.042 221.599 172.439 222.231C171.836 222.862 171.007 223.23 170.132 223.253C169.567 223.271 169.007 223.134 168.514 222.858Z" fill="#CCCCCC"/>
<path d="M146.812 215.009C147.227 217.375 151.895 219.038 157.507 218.749C162.668 218.512 166.889 216.706 167.662 214.565C167.376 214.481 167.078 214.441 166.78 214.448L147.293 214.949C147.131 214.955 146.97 214.975 146.812 215.009Z" fill="white"/>
<path d="M239.969 164.364C238.809 164.406 237.711 164.898 236.909 165.735C236.107 166.572 235.664 167.687 235.675 168.844C235.681 169.079 235.706 169.314 235.751 169.545L222.361 177.424L223.982 185.602L241.153 172.832C242.1 172.574 242.934 172.01 243.525 171.229C244.117 170.448 244.432 169.494 244.422 168.516C244.411 167.959 244.29 167.41 244.067 166.9C243.843 166.39 243.52 165.929 243.118 165.543C242.715 165.157 242.24 164.854 241.72 164.651C241.2 164.448 240.644 164.349 240.086 164.36C240.047 164.361 240.008 164.362 239.969 164.364Z" fill="#FFB6B6"/>
<path d="M229.001 183.147C228.642 182.669 228.489 182.469 228.407 182.524C228.197 182.65 228.399 184.339 226.925 187.284C224.849 191.422 203.082 197.758 203.082 197.758L200.402 192.868L188.614 171.378L184.55 154.153C184.408 153.552 184.339 152.937 184.345 152.32C187.968 149.779 191.815 147.572 195.839 145.726C197.447 146.635 198.672 148.091 199.292 149.827L207.406 172.503L210.644 181.557C210.644 181.557 216.356 177.486 218.428 178.233C220.497 178.985 221.084 177.931 219.732 174.556C218.38 171.181 220.41 174.655 222.771 174.876C225.138 175.1 222.771 174.876 223.889 173.444C225.007 172.012 232.234 171.206 232.234 171.206L232.387 171.526L235.188 177.268L235.99 178.917C235.99 178.917 233.021 182.128 232.304 182.768C231.585 183.412 231.362 183.368 231.715 184.102C232.062 184.833 230.245 184.8 229.001 183.147Z" fill="#8866FF"/>
</g>
<defs>
<clipPath id="clip0_2_2">
<rect width="428" height="316" fill="white"/>
</clipPath>
</defs>
</svg>
