<svg width="40" height="40" viewBox="0 0 40 40" fill="none" xmlns="http://www.w3.org/2000/svg">
<path d="M28.68 0C35.458 0 40 4.76 40 11.84V28.18C40 35.24 35.458 40 28.68 40H11.34C4.56 40 0 35.24 0 28.18V11.84C0 4.76 4.56 0 11.34 0H28.68ZM21.06 10.76C20.5 10.2 19.5 10.2 18.94 10.76L11.44 18.3C10.86 18.88 10.86 19.84 11.44 20.42C12.04 21 12.98 21 13.58 20.42L18.5 15.46V28.16C18.5 29 19.18 29.66 20 29.66C20.84 29.66 21.5 29 21.5 28.16V15.46L26.44 20.42C26.72 20.7 27.12 20.86 27.5 20.86C27.878 20.86 28.26 20.7 28.56 20.42C29.14 19.84 29.14 18.88 28.56 18.3L21.06 10.76Z" fill="#2F2E41"/>
</svg>
