<svg width="36" height="40" viewBox="0 0 36 40" fill="none" xmlns="http://www.w3.org/2000/svg">
<path d="M18.0099 0C23.3698 0 27.7763 4.21182 28 9.54865H27.9477C27.954 9.70378 27.9242 9.85825 27.8606 10H28.1729C30.6069 10 33.1557 11.687 34.1777 15.7596L34.2887 16.2401L35.8265 28.6295C36.9332 36.5315 32.6099 39.8546 26.7124 39.9953L26.3169 40H9.73706C3.74355 40 -0.874911 37.8159 0.140562 29.1671L0.209809 28.6295L1.76528 16.2401C2.53228 11.8544 5.10722 10.1245 7.58824 10.0065L7.86343 10H8.01978C7.99341 9.8507 7.99341 9.69795 8.01978 9.54865C8.24344 4.21182 12.65 0 18.0099 0ZM12.194 16.6586C11.2178 16.6586 10.4264 17.4731 10.4264 18.4779C10.4264 19.4826 11.2178 20.2971 12.194 20.2971C13.1702 20.2971 13.9616 19.4826 13.9616 18.4779L13.9478 18.2497C13.8387 17.3526 13.0951 16.6586 12.194 16.6586ZM23.7716 16.6586C22.7954 16.6586 22.0041 17.4731 22.0041 18.4779C22.0041 19.4826 22.7954 20.2971 23.7716 20.2971C24.7478 20.2971 25.5392 19.4826 25.5392 18.4779C25.5392 17.4731 24.7478 16.6586 23.7716 16.6586ZM17.9315 2.60477C14.0833 2.60477 10.9637 5.71365 10.9637 9.54865C10.99 9.69795 10.99 9.8507 10.9637 10H24.9864C24.9308 9.85589 24.9013 9.70306 24.8993 9.54865C24.8993 5.71365 21.7797 2.60477 17.9315 2.60477Z" fill="#2F2E41"/>
</svg>
