<svg width="28" height="31" viewBox="0 0 28 31" fill="none" xmlns="http://www.w3.org/2000/svg">
<path d="M19.2714 0.0997806C19.9082 0.0982848 20.4118 0.593037 20.4133 1.25271L20.4147 2.37714C24.5467 2.70098 27.2762 5.51657 27.2806 9.8344L27.2969 22.4731C27.3028 27.1807 24.3453 30.0773 19.6046 30.0848L8.02477 30.0998C3.31374 30.1057 0.319171 27.1402 0.313247 22.4191L0.296946 9.92886C0.291032 5.58254 2.92423 2.77444 7.0562 2.39513L7.05472 1.2707C7.05324 0.611028 7.54197 0.114776 8.1936 0.114776C8.84524 0.113277 9.33397 0.608029 9.33545 1.2677L9.33693 2.31717L18.134 2.30518L18.1325 1.2557C18.1311 0.596035 18.6198 0.101283 19.2714 0.0997806ZM19.8757 21.3876H19.8609C19.1796 21.4041 18.6331 21.9753 18.6479 22.665C18.6494 23.3546 19.1988 23.9228 19.8801 23.9378C20.5747 23.9363 21.1375 23.3651 21.136 22.6605C21.136 21.9558 20.5717 21.3876 19.8757 21.3876ZM7.67229 21.3891C6.99104 21.4191 6.45788 21.9903 6.45936 22.68C6.49046 23.3696 7.05324 23.9093 7.73449 23.8779C8.40242 23.8479 8.9341 23.2767 8.903 22.587C8.88819 21.9124 8.33874 21.3876 7.67229 21.3891ZM13.774 21.3816C13.0927 21.4131 12.561 21.9828 12.561 22.6725C12.5921 23.3621 13.1549 23.9004 13.8362 23.8704C14.5026 23.8389 15.0358 23.2692 15.0047 22.578C14.9899 21.9049 14.4404 21.3801 13.774 21.3816ZM7.66489 15.9918C6.98363 16.0218 6.45196 16.593 6.45343 17.2827C6.48306 17.9723 7.04731 18.5121 7.72857 18.4806C8.39502 18.4506 8.92669 17.8794 8.89559 17.1897C8.88078 16.5151 8.33282 15.9903 7.66489 15.9918ZM13.7681 15.9393C13.0868 15.9693 12.5536 16.5405 12.5551 17.2302C12.5847 17.9199 13.149 18.4581 13.8303 18.4281C14.4967 18.3966 15.0284 17.8269 14.9988 17.1372C14.9825 16.4626 14.4345 15.9378 13.7681 15.9393ZM19.8697 15.9468C19.1885 15.9618 18.6553 16.5166 18.6568 17.2062V17.2227C18.6716 17.9124 19.2344 18.4356 19.9171 18.4206C20.5836 18.4041 21.1153 17.8329 21.1004 17.1432C21.0693 16.4836 20.5347 15.9453 19.8697 15.9468ZM18.137 4.61402L9.33989 4.62602L9.34137 5.83891C9.34137 6.48508 8.85412 6.99483 8.20249 6.99483C7.55085 6.99633 7.06064 6.48808 7.06064 5.84191L7.05916 4.68748C4.17123 4.97684 2.57324 6.67399 2.57767 9.92586L2.57916 10.3921L25.0014 10.3621V9.8374C24.9377 6.61402 23.3204 4.92287 20.4177 4.67099L20.4192 5.82541C20.4192 6.47009 19.9171 6.98134 19.2803 6.98134C18.6287 6.98283 18.1385 6.47309 18.1385 5.82841L18.137 4.61402Z" fill="#8866FF"/>
</svg>
