<svg width="35" height="34" viewBox="0 0 35 34" fill="none" xmlns="http://www.w3.org/2000/svg">
<path d="M23.6693 0C30.2032 0 34.2999 4.06684 34.2999 10.6306V14.5778L34.2881 14.7543C34.2019 15.3893 33.6577 15.8786 32.9991 15.8786H32.9842L32.7788 15.8622C32.5088 15.8186 32.2578 15.6896 32.0642 15.4915C31.8222 15.2439 31.6903 14.9091 31.6983 14.5629V10.6306C31.6983 5.45734 28.8426 2.60158 23.6693 2.60158H10.9305C5.74232 2.60158 2.90151 5.45734 2.90151 10.6306V23.3843C2.90151 28.5576 5.75727 31.3984 10.9305 31.3984H23.6693C28.8575 31.3984 31.6983 28.5427 31.6983 23.3843C31.6983 22.6659 32.2807 22.0836 32.9991 22.0836C33.7175 22.0836 34.2999 22.6659 34.2999 23.3843C34.2999 29.9332 30.2331 34 23.6843 34H10.9305C4.36677 34 0.299927 29.9332 0.299927 23.3843V10.6306C0.299927 4.06684 4.36677 0 10.9305 0H23.6693ZM10.0783 12.8434C10.4234 12.8551 10.7496 13.0035 10.9852 13.2559C11.2208 13.5083 11.3463 13.844 11.3342 14.1891V25.0589C11.3095 25.7773 10.707 26.3396 9.98858 26.3149C9.27017 26.2901 8.70787 25.6876 8.73264 24.9692V14.0844L8.75582 13.881C8.80798 13.6144 8.94373 13.3692 9.14603 13.1826C9.3989 12.9494 9.73468 12.8273 10.0783 12.8434ZM17.3597 7.74494C18.0781 7.74494 18.6605 8.32733 18.6605 9.04573V24.9842C18.6605 25.7026 18.0781 26.285 17.3597 26.285C16.6413 26.285 16.0589 25.7026 16.0589 24.9842V9.04573C16.0589 8.32733 16.6413 7.74494 17.3597 7.74494ZM24.5664 18.5849C25.2848 18.5849 25.8672 19.1673 25.8672 19.8857V24.9692C25.8672 25.6876 25.2848 26.27 24.5664 26.27C23.848 26.27 23.2656 25.6876 23.2656 24.9692V19.8857C23.2656 19.1673 23.848 18.5849 24.5664 18.5849Z" fill="#222222"/>
</svg>
