<svg width="40" height="40" viewBox="0 0 40 40" fill="none" xmlns="http://www.w3.org/2000/svg">
<path d="M29.338 0C36.14 0 39.98 3.858 40 10.66V29.34C40 36.14 36.14 40 29.338 40H10.66C3.858 40 0 36.14 0 29.34V10.66C0 3.858 3.858 0 10.66 0H29.338ZM21 8.26C20.438 7.92 19.758 7.92 19.22 8.26C18.678 8.598 18.38 9.22 18.438 9.84V30.22C18.54 31.08 19.258 31.72 20.098 31.72C20.96 31.72 21.678 31.08 21.758 30.22V9.84C21.838 9.22 21.54 8.598 21 8.26ZM11.66 14.82C11.12 14.48 10.438 14.48 9.9 14.82C9.358 15.16 9.06 15.778 9.12 16.4V30.22C9.198 31.08 9.918 31.72 10.778 31.72C11.64 31.72 12.358 31.08 12.438 30.22V16.4C12.5 15.778 12.198 15.16 11.66 14.82ZM30.178 22.08C29.64 21.74 28.96 21.74 28.4 22.08C27.858 22.42 27.56 23.018 27.64 23.66V30.22C27.72 31.08 28.438 31.72 29.3 31.72C30.14 31.72 30.858 31.08 30.96 30.22V23.66C31.018 23.018 30.72 22.42 30.178 22.08Z" fill="black"/>
</svg>
