<svg width="36" height="40" viewBox="0 0 36 40" fill="none" xmlns="http://www.w3.org/2000/svg">
<path d="M31.8781 13.3943C32.2769 13.3943 32.6387 13.5683 32.9246 13.8623C33.1911 14.1763 33.3253 14.5663 33.2864 14.9783C33.2864 15.1142 32.2205 28.5941 31.6116 34.2681C31.2304 37.75 28.9858 39.864 25.6188 39.922C23.0298 39.98 20.4993 40 18.0076 40C15.3622 40 12.7753 39.98 10.2641 39.922C7.00996 39.844 4.76337 37.692 4.40158 34.2681C3.77525 28.5741 2.72879 15.1142 2.70934 14.9783C2.68989 14.5663 2.82215 14.1763 3.09058 13.8623C3.35511 13.5683 3.73635 13.3943 4.13704 13.3943H31.8781ZM22.1295 0C23.8976 0 25.477 1.23399 25.9341 2.99397L26.2609 4.45396C26.5254 5.64394 27.5563 6.48594 28.7428 6.48594H34.5742C35.3523 6.48594 36 7.13193 36 7.95392V8.71391C36 9.5159 35.3523 10.1819 34.5742 10.1819H1.42771C0.64772 10.1819 0 9.5159 0 8.71391V7.95392C0 7.13193 0.64772 6.48594 1.42771 6.48594H7.25913C8.4437 6.48594 9.47461 5.64394 9.74109 4.45596L10.0465 3.09197C10.5211 1.23399 12.083 0 13.8705 0H22.1295Z" fill="black"/>
</svg>
