<svg width="40" height="40" viewBox="0 0 40 40" fill="none" xmlns="http://www.w3.org/2000/svg">
<path d="M29.3306 0.0206705C32.2076 -0.159143 35.0447 0.839823 37.1825 2.7978C39.1405 4.93559 40.1395 7.77265 39.9797 10.6697V29.3303C40.1595 32.2273 39.1405 35.0644 37.2025 37.2022C35.0647 39.1602 32.2076 40.1591 29.3306 39.9793H10.6697C7.77271 40.1591 4.93563 39.1602 2.79782 37.2022C0.83983 35.0644 -0.159145 32.2273 0.0206707 29.3303V10.6697C-0.159145 7.77265 0.83983 4.93559 2.79782 2.7978C4.93563 0.839823 7.77271 -0.159143 10.6697 0.0206705H29.3306ZM28.8111 9.15122C27.5724 7.91251 25.5744 7.91251 24.3357 9.15122L22.9971 10.5098C22.7973 10.7096 22.7973 11.0493 22.9971 11.2491C22.9971 11.2491 23.0363 11.288 23.1061 11.3574L23.5975 11.8462C23.8818 12.129 24.2366 12.4822 24.5929 12.8374L25.8011 14.045C26.0532 14.2982 26.2204 14.4679 26.2338 14.4857C26.4535 14.7255 26.5934 15.0451 26.5934 15.4048C26.5934 16.124 26.014 16.7234 25.2747 16.7234C24.9351 16.7234 24.6154 16.5835 24.3956 16.3638L21.0591 13.0472C20.8992 12.8874 20.6195 12.8874 20.4597 13.0472L10.9295 22.5773C10.2701 23.2367 9.89054 24.1157 9.87056 25.0548L9.75068 29.7899C9.75068 30.0496 9.8306 30.2894 10.0104 30.4692C10.1902 30.649 10.43 30.7489 10.6897 30.7489H15.3849C16.3439 30.7489 17.263 30.3693 17.9623 29.69L31.4084 16.2039C32.6272 14.9652 32.6272 12.9673 31.4084 11.7485L28.8111 9.15122Z" fill="#2F2E41"/>
</svg>
