<svg width="36" height="36" viewBox="0 0 36 36" fill="none" xmlns="http://www.w3.org/2000/svg">
<path d="M33.9796 31.9065C35.0938 31.9065 36 32.8245 36 33.9533C36 35.0841 35.0938 36 33.9796 36H22.5594C21.4452 36 20.5389 35.0841 20.5389 33.9533C20.5389 32.8245 21.4452 31.9065 22.5594 31.9065H33.9796ZM26.0597 1.39813L29.0097 3.74157C30.2195 4.68754 31.0259 5.93451 31.3018 7.24598C31.6202 8.68859 31.2806 10.1054 30.3256 11.3309L12.7528 34.0558C11.9463 35.0878 10.7578 35.6683 9.48443 35.6898L2.48079 35.7758C2.09877 35.7758 1.78043 35.5178 1.69553 35.1523L0.103797 28.2509C-0.172104 26.9825 0.103797 25.671 0.910277 24.6605L13.3683 8.53595C13.5805 8.27795 13.9625 8.2371 14.2172 8.42845L19.4593 12.5993C19.7989 12.8788 20.2658 13.0293 20.7539 12.9648C21.7939 12.8358 22.4942 11.8899 22.3881 10.8794C22.3244 10.3634 22.0698 9.93341 21.7302 9.61092C21.6241 9.52492 16.6366 5.52602 16.6366 5.52602C16.3183 5.26803 16.2546 4.79504 16.5093 4.4747L18.483 1.91411C20.3082 -0.429327 23.4917 -0.644321 26.0597 1.39813Z" fill="black"/>
</svg>
