<svg width="30" height="32" viewBox="0 0 30 32" fill="none" xmlns="http://www.w3.org/2000/svg">
<path d="M10.4901 29.9191V25.0767C10.4901 23.8496 11.4879 22.8527 12.7238 22.845H17.262C18.5035 22.845 19.5099 23.8442 19.5099 25.0767V29.9051C19.5099 30.9694 20.3748 31.8344 21.4467 31.8421H24.5429C25.9889 31.8458 27.377 31.2781 28.4008 30.2643C29.4246 29.2505 30 27.8738 30 26.4382V12.6829C30 11.5233 29.4822 10.4233 28.5862 9.67924L18.0679 1.32782C16.2292 -0.132939 13.6032 -0.0857508 11.819 1.44011L1.52686 9.67924C0.588538 10.4013 0.0277141 11.5046 0 12.6829V26.4242C0 29.4164 2.44323 31.8421 5.45712 31.8421H8.48256C8.99869 31.8458 9.49498 31.6449 9.86127 31.2839C10.2276 30.9228 10.4336 30.4316 10.4336 29.9191H10.4901Z" fill="#2F2E41"/>
</svg>
