<svg width="34" height="40" viewBox="0 0 34 40" fill="none" xmlns="http://www.w3.org/2000/svg">
<path d="M16.9695 0C23.107 0 28.0454 4.82957 28.0454 10.792V13.8587C31.4901 14.9339 34 18.0523 34 21.7768V31.6506C34 36.2616 30.1773 40 25.4644 40H8.5376C3.82271 40 0 36.2616 0 31.6506V21.7768C0 18.0523 2.51189 14.9339 5.95457 13.8587V10.792C5.9749 4.82957 10.9133 0 16.9695 0ZM16.9898 22.7686C16.0143 22.7686 15.2218 23.5437 15.2218 24.4977V28.9099C15.2218 29.8837 16.0143 30.6588 16.9898 30.6588C17.9857 30.6588 18.7782 29.8837 18.7782 28.9099V24.4977C18.7782 23.5437 17.9857 22.7686 16.9898 22.7686ZM17.0102 3.47809C12.8846 3.47809 9.53138 6.73755 9.51106 10.7523V13.4274H24.4889V10.792C24.4889 6.75743 21.1357 3.47809 17.0102 3.47809Z" fill="black"/>
</svg>
