<svg width="40" height="40" viewBox="0 0 40 40" fill="none" xmlns="http://www.w3.org/2000/svg">
<path d="M11.84 22.9394C14.66 22.9394 16.92 25.2214 16.92 28.0614V34.8794C16.92 37.6994 14.66 39.9994 11.84 39.9994H5.08C2.28 39.9994 0 37.6994 0 34.8794V28.0614C0 25.2214 2.28 22.9394 5.08 22.9394H11.84ZM34.9202 22.9394C37.7202 22.9394 40.0002 25.2214 40.0002 28.0614V34.8794C40.0002 37.6994 37.7202 39.9994 34.9202 39.9994H28.1602C25.3402 39.9994 23.0802 37.6994 23.0802 34.8794V28.0614C23.0802 25.2214 25.3402 22.9394 28.1602 22.9394H34.9202ZM11.84 0C14.66 0 16.92 2.3 16.92 5.122V11.94C16.92 14.78 14.66 17.06 11.84 17.06H5.08C2.28 17.06 0 14.78 0 11.94V5.122C0 2.3 2.28 0 5.08 0H11.84ZM34.9202 0C37.7202 0 40.0002 2.3 40.0002 5.122V11.94C40.0002 14.78 37.7202 17.06 34.9202 17.06H28.1602C25.3402 17.06 23.0802 14.78 23.0802 11.94V5.122C23.0802 2.3 25.3402 0 28.1602 0H34.9202Z" fill="#8866FF"/>
</svg>
