<svg width="30" height="30" viewBox="0 0 30 30" fill="none" xmlns="http://www.w3.org/2000/svg">
<path d="M21.51 0C26.595 0 30 3.57 30 8.88V21.135C30 26.43 26.595 30 21.51 30H8.505C3.42 30 0 26.43 0 21.135V8.88C0 3.57 3.42 0 8.505 0H21.51ZM21.72 13.2015C20.73 13.2015 19.92 14.01 19.92 15C19.92 15.99 20.73 16.8 21.72 16.8C22.71 16.8 23.505 15.99 23.505 15C23.505 14.01 22.71 13.2015 21.72 13.2015ZM15 13.2015C14.01 13.2015 13.2 14.01 13.2 15C13.2 15.99 14.01 16.8 15 16.8C15.99 16.8 16.8 15.99 16.8 15C16.8 14.01 15.99 13.2015 15 13.2015ZM8.28 13.2015C7.29 13.2015 6.48 14.01 6.48 15C6.48 15.99 7.29 16.8 8.28 16.8C9.27 16.8 10.08 15.99 10.08 15C10.08 14.01 9.27 13.2015 8.28 13.2015Z" fill="#2F2E41"/>
</svg>
