<svg width="38" height="38" viewBox="0 0 38 38" fill="none" xmlns="http://www.w3.org/2000/svg">
<path d="M32.2339 20.5031C35.4076 20.5129 37.9807 23.1316 38 26.3714V32.1137C37.9807 35.3564 35.4104 37.9804 32.2339 38H26.6088C23.4352 37.9803 20.8699 35.3535 20.8603 32.1137V26.3714C20.8603 23.1304 23.434 20.5031 26.6088 20.5031H32.2339ZM8.0761 20.5031C8.66672 20.4386 9.24161 20.7239 9.5567 21.2379C9.8718 21.7519 9.8718 22.4045 9.5567 22.9185C9.24161 23.4325 8.66672 23.7178 8.0761 23.6533H5.76613C4.29271 23.6532 3.09554 24.8673 3.08585 26.3714V32.0417C3.12331 33.5337 4.30434 34.7315 5.76613 34.7599H11.4264C12.1357 34.7647 12.8175 34.4804 13.3206 33.9701C13.8238 33.4599 14.1067 32.7657 14.1067 32.0417V23.5273L14.0827 23.3155C14.0561 22.7521 14.3262 22.2096 14.8017 21.9018C15.3367 21.5556 16.024 21.576 16.5383 21.9534C17.0527 22.3307 17.2907 22.9893 17.1397 23.6173V32.0957C17.1397 35.3466 14.5581 37.982 11.3735 37.982H5.76613C2.60911 37.9152 0.0654998 35.3185 0 32.0957V26.3714C0 24.8119 0.608056 23.3166 1.68992 22.2155C2.77179 21.1145 4.23848 20.4983 5.76613 20.5031H8.0761ZM32.2339 23.6532H26.6088C25.1383 23.6532 23.9461 24.8702 23.9461 26.3714V32.1137C23.9414 32.8361 24.2204 33.5302 24.7208 34.041C25.2212 34.5518 25.9012 34.8367 26.6088 34.8319H32.2339C32.9415 34.8367 33.6215 34.5518 34.1219 34.041C34.6222 33.5302 34.9013 32.8361 34.8966 32.1137V26.3714C34.8966 25.6505 34.616 24.9591 34.1166 24.4494C33.6173 23.9396 32.9401 23.6532 32.2339 23.6532ZM32.2339 3.8147e-06C35.384 0.0763627 37.9172 2.67031 37.9824 5.88631V11.6106C38.0012 13.167 37.4135 14.6673 36.3487 15.7814C35.2838 16.8954 33.829 17.5319 32.3044 17.5509H29.9768C29.1882 17.4647 28.5902 16.7854 28.5902 15.9758C28.5902 15.1663 29.1882 14.4869 29.9768 14.4008H32.2339C32.9478 14.396 33.6304 14.1007 34.1303 13.5803C34.6301 13.0599 34.9059 12.3574 34.8965 11.6286V5.88631C34.8775 4.39323 33.6965 3.18756 32.2339 3.16817H26.6088C25.1383 3.16817 23.9462 4.38512 23.9462 5.88631V14.4728L23.9252 14.6863C23.7989 15.4532 23.1414 16.0303 22.3592 16.0208C21.9491 16.0115 21.5598 15.8349 21.2782 15.5305C20.9966 15.2261 20.8461 14.8192 20.8603 14.4008V5.88631C20.8556 4.32682 21.4592 2.82957 22.5378 1.72515C23.6163 0.620733 25.0812 3.8147e-06 26.6088 3.8147e-06H32.2339ZM11.3912 3.8147e-06C14.5717 0.00988765 17.1476 2.6395 17.1573 5.88631V11.6286C17.1573 13.1881 16.5493 14.6835 15.4674 15.7845C14.3855 16.8856 12.9188 17.5017 11.3912 17.497H5.76613C2.59245 17.4871 0.0193373 14.8684 9.69838e-08 11.6286V5.88631C0.0192523 2.64357 2.58959 0.0196573 5.76613 3.8147e-06H11.3912ZM11.3912 3.16817H5.76613C5.05083 3.15366 4.3599 3.43362 3.84906 3.94495C3.33822 4.45628 3.05044 5.15596 3.05058 5.88631V11.6286C3.03604 12.3683 3.31746 13.0821 3.82991 13.6052C4.34236 14.1283 5.04156 14.4156 5.76613 14.4008H11.3912C12.1051 14.396 12.7877 14.1007 13.2876 13.5803C13.7874 13.0599 14.0632 12.3574 14.0538 11.6286V5.88631C14.0442 4.38921 12.8577 3.17799 11.3912 3.16817Z" fill="#2F2E41"/>
</svg>
