<svg width="35" height="34" viewBox="0 0 35 34" fill="none" xmlns="http://www.w3.org/2000/svg">
<path d="M23.5699 0C30.1336 0 34.2 4.0681 34.2 10.6352V23.3852C34.2 29.9336 30.1336 34 23.5699 34H10.8148C4.26636 34 0.199955 29.9336 0.201659 23.3801C0.201659 22.6627 0.784759 22.0796 1.50216 22.0796C2.22126 22.0796 2.80266 22.6627 2.80266 23.3801C2.80266 28.5379 5.64336 31.3939 10.8318 31.3939H23.5699C28.743 31.3939 31.599 28.5532 31.599 23.3801V10.6301C31.599 5.457 28.76 2.601 23.5699 2.601H10.8301C5.65696 2.601 2.80096 5.457 2.80096 10.6301V14.5928C2.80096 15.3034 2.22636 15.878 1.51576 15.878H1.49706C0.779659 15.878 0.198259 15.2949 0.199955 14.5775V10.6301C0.199955 4.0681 4.29696 0 10.8318 0H23.5699ZM9.58515 14.9668C10.7088 14.9668 11.6217 15.8797 11.6217 17C11.6217 18.122 10.7088 19.0349 9.58515 19.0349C8.46315 19.0349 7.54855 18.122 7.54855 17C7.54855 15.8797 8.46315 14.9668 9.58515 14.9668ZM17.2003 14.9668C18.324 14.9668 19.2369 15.8797 19.2369 17C19.2369 18.122 18.324 19.0349 17.2003 19.0349C16.0783 19.0349 15.1637 18.122 15.1637 17C15.1637 15.8797 16.0783 14.9668 17.2003 14.9668ZM24.8146 14.9668C25.9383 14.9668 26.8512 15.8797 26.8512 17C26.8512 18.122 25.9383 19.0349 24.8146 19.0349C23.6926 19.0349 22.778 18.122 22.778 17C22.778 15.8797 23.6926 14.9668 24.8146 14.9668Z" fill="#222222"/>
</svg>
