<svg width="34" height="40" viewBox="0 0 34 40" fill="none" xmlns="http://www.w3.org/2000/svg">
<path d="M12.9264 34.4558C13.9262 34.2443 20.0186 34.2443 21.0184 34.4558C21.8731 34.6532 22.7974 35.1145 22.7974 36.1217C22.7477 37.0805 22.1852 37.9305 21.408 38.4704C20.4002 39.256 19.2175 39.7535 17.9811 39.9328C17.2974 40.0214 16.6255 40.0234 15.9656 39.9328C14.7272 39.7535 13.5445 39.256 12.5388 38.4684C11.7596 37.9305 11.197 37.0805 11.1473 36.1217C11.1473 35.1145 12.0716 34.6532 12.9264 34.4558ZM17.0904 0C21.2507 0 25.5005 1.97404 28.0249 5.24933C29.6628 7.35833 30.4141 9.46531 30.4141 12.7406V13.5927C30.4141 16.1045 31.078 17.5851 32.539 19.2912C33.6462 20.5481 34 22.1616 34 23.912C34 25.6605 33.4255 27.3203 32.2747 28.6679C30.768 30.2833 28.6431 31.3147 26.4745 31.494C23.3319 31.7619 20.1873 31.9875 17.001 31.9875C13.8127 31.9875 10.6701 31.8525 7.52751 31.494C5.35691 31.3147 3.23204 30.2833 1.72733 28.6679C0.57644 27.3203 0 25.6605 0 23.912C0 22.1616 0.355802 20.5481 1.46098 19.2912C2.96767 17.5851 3.58784 16.1045 3.58784 13.5927V12.7406C3.58784 9.37668 4.42666 7.17704 6.15399 5.02372C8.72213 1.88339 12.8387 0 16.9115 0H17.0904Z" fill="#2F2E41"/>
</svg>
