<svg width="44" height="34" viewBox="0 0 44 34" fill="none" xmlns="http://www.w3.org/2000/svg">
<path fill-rule="evenodd" clip-rule="evenodd" d="M21.7732 20.828L21.999 20.8281L22.5042 20.8298C26.3654 20.8552 35.1892 21.2453 35.1892 27.226C35.1892 33.1675 26.673 33.555 22.5644 33.5802L21.0422 33.5802C17.1808 33.5548 8.3552 33.1653 8.3552 27.192C8.3552 21.243 17.1808 20.8551 21.0422 20.8298L21.5474 20.8281C21.6257 20.828 21.7011 20.828 21.7732 20.828ZM21.7732 23.828C17.0212 23.828 11.3552 24.412 11.3552 27.192C11.3552 29.9091 16.683 30.5443 21.3389 30.5803L21.7732 30.582C26.5252 30.582 32.1892 30 32.1892 27.226C32.1892 24.418 26.5252 23.828 21.7732 23.828ZM37.6804 20.0164C42.5264 20.7424 43.5444 23.0184 43.5444 24.8004C43.5444 25.8884 43.1164 27.8744 40.2564 28.9644C40.0804 29.0304 39.9004 29.0624 39.7224 29.0624C39.1184 29.0624 38.5484 28.6944 38.3204 28.0964C38.0244 27.3224 38.4144 26.4544 39.1884 26.1604C40.5444 25.6444 40.5444 25.0744 40.5444 24.8004C40.5444 23.9244 39.4304 23.3124 37.2344 22.9844C36.4164 22.8604 35.8504 22.0984 35.9724 21.2764C36.0944 20.4564 36.8544 19.9104 37.6804 20.0164ZM7.572 21.2764C7.694 22.0984 7.128 22.8604 6.31 22.9844C4.114 23.3124 3 23.9244 3 24.8004C3 25.0744 3 25.6424 4.358 26.1604C5.132 26.4544 5.522 27.3224 5.226 28.0964C4.998 28.6944 4.428 29.0624 3.824 29.0624C3.646 29.0624 3.466 29.0304 3.29 28.9644C0.428 27.8724 0 25.8864 0 24.8004C0 23.0204 1.018 20.7424 5.866 20.0164C6.692 19.9124 7.448 20.4564 7.572 21.2764ZM21.7732 0C26.8132 0 30.9112 4.1 30.9112 9.138C30.9112 14.176 26.8132 18.276 21.7732 18.276H21.7192C19.2792 18.268 16.9932 17.312 15.2812 15.584C13.5652 13.858 12.6272 11.566 12.6371 9.132C12.6371 4.1 16.7352 0 21.7732 0ZM21.7732 3C18.3892 3 15.6372 5.754 15.6372 9.138C15.6312 10.778 16.2592 12.312 17.4092 13.47C18.5592 14.628 20.0912 15.27 21.7232 15.276L21.7732 16.776V15.276C25.1572 15.276 27.9112 12.524 27.9112 9.138C27.9112 5.754 25.1572 3 21.7732 3ZM34.1512 1.959C37.6672 2.537 40.2212 5.545 40.2212 9.111C40.2132 12.701 37.5312 15.781 33.9812 16.279C33.9112 16.289 33.8412 16.293 33.7732 16.293C33.0372 16.293 32.3952 15.751 32.2892 15.001C32.1752 14.179 32.7452 13.421 33.5672 13.307C35.6472 13.015 37.2172 11.211 37.2212 9.107C37.2212 7.021 35.7252 5.257 33.6632 4.919C32.8472 4.785 32.2932 4.013 32.4272 3.195C32.5632 2.377 33.3292 1.829 34.1512 1.959ZM11.1192 3.195C11.2532 4.013 10.6992 4.785 9.8832 4.919C7.8212 5.257 6.3252 7.021 6.3252 9.111C6.3292 11.211 7.8992 13.017 9.9772 13.307C10.7992 13.421 11.3692 14.179 11.2552 15.001C11.1492 15.751 10.5072 16.293 9.7712 16.293C9.7032 16.293 9.6332 16.289 9.5632 16.279C6.0132 15.781 3.3332 12.701 3.3252 9.115C3.3252 5.545 5.8792 2.537 9.3952 1.959C10.2372 1.827 10.9832 2.381 11.1192 3.195Z" fill="black"/>
</svg>
