<svg width="40" height="40" viewBox="0 0 40 40" fill="none" xmlns="http://www.w3.org/2000/svg">
<path d="M37.1188 13.5803C37.9221 13.59 38.5682 14.2426 38.5682 15.0442V27.9895C38.5682 35.3968 33.9371 40 26.5134 40H20.6097C19.7966 40 19.1347 39.3475 19.125 38.5362C19.1345 37.7219 19.7937 37.0642 20.6097 37.0547H26.5134C32.364 37.0547 35.5987 33.8448 35.6517 27.9895V15.0442C35.6517 14.2357 36.3085 13.5803 37.1188 13.5803ZM25.0463 1.55217C25.8594 1.56183 26.5134 2.22229 26.5134 3.03365C26.5134 3.42496 26.3564 3.79999 26.0775 4.07502C25.7985 4.35006 25.4208 4.5022 25.0286 4.49749H12.0371C6.18646 4.49749 2.95182 7.72499 2.95182 13.5803V27.9895C2.95182 33.8448 6.18646 37.0547 12.0371 37.0547C12.8531 37.0642 13.5123 37.7219 13.5218 38.5362C13.5122 39.3475 12.8502 40 12.0371 40C4.61333 40 0 35.3968 0 27.9895V13.5803C0 6.15533 4.61333 1.55217 12.0371 1.55217H25.0463ZM27.2811 14.9483C27.7973 14.5967 28.4928 14.6068 29.0021 14.9977C29.575 15.4374 29.7416 16.2281 29.3945 16.8608L23.7383 24.1447C23.4907 24.4497 23.1376 24.651 22.7485 24.7091C22.3613 24.7483 21.9741 24.6343 21.6703 24.3916L16.2439 20.1412L11.3654 26.4727C11.1328 26.7885 10.783 26.998 10.3943 27.0544C10.0056 27.1107 9.61044 27.0092 9.29736 26.7725C8.65843 26.2727 8.54033 25.3535 9.03223 24.7091L14.8122 17.1959C15.0533 16.8844 15.4087 16.6814 15.8 16.6318C16.1913 16.5821 16.5863 16.6899 16.8979 16.9313L22.3243 21.1817L27.0967 15.0971L27.2811 14.9483ZM32.8023 0.399927C34.7436 -0.408198 36.9816 0.0310591 38.4715 1.51261C39.9614 2.99416 40.4093 5.22577 39.606 7.1655C38.8027 9.10523 36.9067 10.3705 34.8032 10.3705C31.9401 10.3705 29.6164 8.05975 29.6066 5.20295L29.6184 4.83486C29.7502 2.88485 30.9752 1.16052 32.8023 0.399927ZM34.8032 2.9631C33.5635 2.9631 32.5584 3.96592 32.5584 5.20295C32.5584 6.43999 33.5635 7.4428 34.8032 7.4428C36.043 7.4428 37.048 6.43999 37.048 5.20295C37.048 3.96592 36.043 2.9631 34.8032 2.9631Z" fill="black"/>
</svg>
