<svg width="40" height="40" viewBox="0 0 40 40" fill="none" xmlns="http://www.w3.org/2000/svg">
<path d="M28.66 0C35.44 0 40 4.76 40 11.82V28.16C40 35.24 35.44 40 28.66 40H11.32C4.542 40 0 35.24 0 28.16V11.82C0 4.76 4.542 0 11.32 0H28.66ZM20 10.34C19.16 10.34 18.5 11 18.5 11.84V24.54L13.56 19.58C13.28 19.3 12.88 19.14 12.5 19.14C12.122 19.14 11.74 19.3 11.44 19.58C10.86 20.16 10.86 21.12 11.44 21.7L18.94 29.24C19.5 29.8 20.5 29.8 21.06 29.24L28.56 21.7C29.14 21.12 29.14 20.16 28.56 19.58C27.96 19 27.02 19 26.42 19.58L21.5 24.54V11.84C21.5 11 20.82 10.34 20 10.34Z" fill="#2F2E41"/>
</svg>
