<svg width="30" height="36" viewBox="0 0 30 36" fill="none" xmlns="http://www.w3.org/2000/svg">
<path d="M13.8367 0.182997C14.5294 -0.0609989 15.2931 -0.0609989 16.0036 0.182997L27.7084 4.10942C29.0228 4.54204 29.9108 5.75509 29.9108 7.10485L29.9998 18.8184C30.0174 22.3658 28.7208 25.8094 26.3408 28.5107C25.2573 29.7566 23.8542 30.8122 22.078 31.764L15.7727 35.1384C15.5773 35.2422 15.3642 35.2941 15.1511 35.2941C14.9379 35.2941 14.707 35.2422 14.5116 35.1384L8.15303 31.8505C6.35912 30.916 4.95597 29.8778 3.85476 28.6491C1.4392 25.9842 0.0893231 22.5406 0.0715616 18.9931L0.000254082 7.27617C-0.0172457 5.92641 0.870828 4.71681 2.16742 4.26516L13.8367 0.182997ZM12.5934 12.9867C12.0783 12.4849 11.2435 12.4849 10.7107 12.9867C10.1956 13.5076 10.1956 14.3209 10.7107 14.8227L13.1085 17.1571L10.7107 19.495C10.1956 19.9968 10.1956 20.8274 10.7107 21.3293C10.9771 21.5888 11.3146 21.7082 11.652 21.7082C12.0073 21.7082 12.3447 21.5888 12.5934 21.3293L14.9912 18.9931L17.389 21.3293C17.6554 21.5888 17.9929 21.7082 18.3304 21.7082C18.6678 21.7082 19.0231 21.5888 19.2717 21.3293C19.7868 20.8274 19.7868 19.9968 19.2717 19.495L16.8739 17.1571L19.2717 14.8227C19.7868 14.3209 19.7868 13.5076 19.2717 12.9867C18.7566 12.4849 17.9041 12.4849 17.389 12.9867L14.9912 15.3246L12.5934 12.9867Z" fill="#2F2E41"/>
</svg>
