<svg width="30" height="36" viewBox="0 0 30 36" fill="none" xmlns="http://www.w3.org/2000/svg">
<path d="M16.0072 0.175702L27.7203 4.10562C29.0315 4.54343 29.918 5.74784 29.9251 7.09762L29.9997 18.8164C30.0228 22.3691 28.7277 25.8145 26.3559 28.514C25.2651 29.753 23.8669 30.8173 22.0814 31.7691L15.7851 35.1348C15.5879 35.2387 15.3712 35.2923 15.1527 35.2941C14.9342 35.2958 14.7156 35.2439 14.5202 35.1418L8.16532 31.8538C6.3603 30.9177 4.94968 29.869 3.84819 28.6473C1.43735 25.9754 0.0977987 22.5456 0.0747029 18.9877L4.26643e-05 7.27759C-0.00702054 5.92608 0.863512 4.71302 2.16753 4.2579L13.8362 0.187815C14.5291 -0.0579131 15.3019 -0.0631045 16.0072 0.175702ZM21.6085 12.7388C21.0844 12.2352 20.2405 12.2387 19.7235 12.7492L13.779 18.6086L11.3451 16.269C10.821 15.7654 9.97887 15.7706 9.46011 16.2811C8.94312 16.7916 8.94845 17.6118 9.47254 18.1154L12.8534 21.3687C13.1163 21.6214 13.4574 21.7459 13.7986 21.7426C14.1397 21.7408 14.479 21.6127 14.7384 21.3566L21.6191 14.5731C22.1361 14.0626 22.1308 13.2424 21.6085 12.7388Z" fill="#2F2E41"/>
</svg>
