<svg width="44" height="32" viewBox="0 0 44 32" fill="none" xmlns="http://www.w3.org/2000/svg">
<path d="M21.8981 21.0792C28.7604 21.0792 34.6199 22.1672 34.6199 26.5207C34.6199 30.8724 28.798 32 21.8981 32C15.0357 32 9.17618 30.9121 9.17618 26.5603C9.17618 22.2068 14.9981 21.0792 21.8981 21.0792ZM32.8701 18.4578C35.4937 18.4091 38.3142 18.7694 39.3564 19.0251C41.5645 19.4592 43.0168 20.3454 43.6186 21.6333C44.1271 22.6906 44.1271 23.9172 43.6186 24.9727C42.6981 26.9703 39.7307 27.6115 38.5774 27.7772C38.3393 27.8133 38.1476 27.6061 38.1727 27.3666C38.7619 21.8314 34.0754 19.2071 32.863 18.6037C32.811 18.5766 32.8003 18.5352 32.8057 18.51C32.8093 18.492 32.8307 18.4632 32.8701 18.4578ZM11.1312 18.4585C11.1706 18.4639 11.1903 18.4927 11.1939 18.5089C11.1992 18.5359 11.1885 18.5756 11.1384 18.6044C9.9242 19.2078 5.23766 21.8321 5.82683 27.3655C5.8519 27.6068 5.66208 27.8122 5.4239 27.778C4.27062 27.6122 1.30326 26.971 0.382785 24.9735C-0.127595 23.9162 -0.127595 22.6913 0.382785 21.634C0.984495 20.3461 2.43505 19.46 4.64311 19.0241C5.68715 18.7701 8.50588 18.4098 11.1312 18.4585ZM21.8981 0C26.5703 0 30.3166 3.76454 30.3166 8.4657C30.3166 13.1651 26.5703 16.9332 21.8981 16.9332C17.2258 16.9332 13.4795 13.1651 13.4795 8.4657C13.4795 3.76454 17.2258 0 21.8981 0ZM33.3268 1.41179C37.8396 1.41179 41.3836 5.68247 40.1766 10.4395C39.3618 13.642 36.4124 15.7693 33.1262 15.6828C32.7967 15.6738 32.4726 15.6432 32.1592 15.5891C31.9318 15.5495 31.8172 15.2919 31.9461 15.101C33.1997 13.2458 33.9142 11.0141 33.9142 8.61845C33.9142 6.11836 33.1334 3.78759 31.7778 1.8765C31.7348 1.81706 31.7025 1.7252 31.7455 1.65676C31.7813 1.60092 31.8476 1.5721 31.9103 1.55769C32.3669 1.46403 32.8361 1.41179 33.3268 1.41179ZM10.6719 1.41161C11.1625 1.41161 11.6317 1.46385 12.0902 1.55751C12.1511 1.57192 12.2191 1.60254 12.2549 1.65658C12.2961 1.72502 12.2657 1.81688 12.2227 1.87632C10.8671 3.78741 10.0863 6.11818 10.0863 8.61827C10.0863 11.0139 10.8008 13.2456 12.0544 15.1008C12.1833 15.2918 12.0687 15.5493 11.8413 15.589C11.5261 15.6448 11.2037 15.6736 10.8742 15.6826C7.58809 15.7691 4.63863 13.6419 3.82382 10.4393C2.61502 5.68229 6.15903 1.41161 10.6719 1.41161Z" fill="#2F2E41"/>
</svg>
