<svg width="40" height="40" viewBox="0 0 40 40" fill="none" xmlns="http://www.w3.org/2000/svg">
<path d="M38.8708 1.16397C37.8703 0.137196 36.3897 -0.245326 35.0092 0.157329L2.81599 9.51905C1.3594 9.92372 0.326974 11.0854 0.0488603 12.5611C-0.235256 14.063 0.75715 15.9696 2.05368 16.7668L12.1198 22.9536C13.1522 23.5878 14.4848 23.4288 15.3391 22.5671L26.8658 10.9686C27.4461 10.3646 28.4065 10.3646 28.9867 10.9686C29.5669 11.5525 29.5669 12.4987 28.9867 13.1027L17.44 24.7032C16.5836 25.5628 16.4236 26.9016 17.0538 27.9405L23.2043 38.1075C23.9246 39.3155 25.1651 40 26.5257 40C26.6858 40 26.8658 40 27.0259 39.9799C28.5865 39.7785 29.8271 38.7115 30.2872 37.2015L39.8311 5.04958C40.2513 3.68056 39.8712 2.19073 38.8708 1.16397Z" fill="#2F2E41"/>
</svg>
