<svg width="40" height="40" viewBox="0 0 40 40" fill="none" xmlns="http://www.w3.org/2000/svg">
<path d="M4.51664 26.3666V30.8334C4.51664 33.3667 6.58328 35.4334 9.11648 35.4334H13.5834L16.7498 38.5998C17.6166 39.4666 18.7833 39.9499 20 39.9499C21.2167 39.9499 22.3834 39.4666 23.2502 38.5999L26.4166 35.4334H30.8835C33.4167 35.4334 35.4834 33.3667 35.4834 30.8334V26.3666L38.6499 23.2001C39.5166 22.3334 40 21.1667 40 19.9499C40 18.7331 39.5166 17.5666 38.6499 16.7002L35.4834 13.5334V9.0668C35.4834 6.53321 33.4167 4.46656 30.8834 4.46656H26.4166L23.2502 1.3C21.5167 -0.433436 18.4833 -0.433436 16.7498 1.3L13.5834 4.46641H9.11641C6.5832 4.46641 4.51648 6.53313 4.51648 9.06672V13.5333L1.35008 16.7001C0.483281 17.5666 0 18.7332 0 19.9499C0 21.1666 0.483359 22.3334 1.35008 23.2001L4.51664 26.3666ZM20 9.95C20.6833 9.95 21.25 10.5167 21.25 11.2V28.7C21.25 29.3833 20.6833 29.95 20 29.95C14.2002 29.95 10 25.7502 10 19.95C10 14.1502 14.2002 9.95 20 9.95Z" fill="#2F2E41"/>
</svg>
